<mxfile host="app.diagrams.net" modified="2021-06-19T01:02:09.982Z" agent="5.0 (Windows NT 10.0; Win64; x64) AppleWebKit/537.36 (KHTML, like Gecko) Chrome/91.0.4472.106 Safari/537.36" etag="HQbJFe9F74iI5CnHyOL7" version="14.8.0" type="github">
  <diagram id="6CdzCUz8HcLEYqCQVTEM" name="Page-1">
    <mxGraphModel dx="1360" dy="1971" grid="1" gridSize="10" guides="1" tooltips="1" connect="1" arrows="1" fold="1" page="1" pageScale="1" pageWidth="1654" pageHeight="1169" math="0" shadow="0">
      <root>
        <mxCell id="0" />
        <mxCell id="1" parent="0" />
        <mxCell id="cUqwhZdn4gUKvGzjcZQ_-3" value="&lt;font style=&quot;font-size: 18px&quot;&gt;order_detail.csv&lt;/font&gt;" style="shape=image;html=1;verticalAlign=top;verticalLabelPosition=bottom;labelBackgroundColor=#ffffff;imageAspect=0;aspect=fixed;image=https://cdn3.iconfinder.com/data/icons/file-extension-vol-1/48/csv_file_database_extension_data-128.png" parent="1" vertex="1">
          <mxGeometry x="200" y="220" width="128" height="128" as="geometry" />
        </mxCell>
        <mxCell id="cUqwhZdn4gUKvGzjcZQ_-4" value="&lt;font style=&quot;font-size: 18px&quot;&gt;restaurant_detail.csv&lt;/font&gt;" style="shape=image;html=1;verticalAlign=top;verticalLabelPosition=bottom;labelBackgroundColor=#ffffff;imageAspect=0;aspect=fixed;image=https://cdn3.iconfinder.com/data/icons/file-extension-vol-1/48/csv_file_database_extension_data-128.png" parent="1" vertex="1">
          <mxGeometry x="200" y="590" width="128" height="128" as="geometry" />
        </mxCell>
        <mxCell id="cUqwhZdn4gUKvGzjcZQ_-90" style="edgeStyle=orthogonalEdgeStyle;rounded=0;orthogonalLoop=1;jettySize=auto;html=1;" parent="1" source="cUqwhZdn4gUKvGzjcZQ_-25" target="cUqwhZdn4gUKvGzjcZQ_-89" edge="1">
          <mxGeometry relative="1" as="geometry" />
        </mxCell>
        <mxCell id="cUqwhZdn4gUKvGzjcZQ_-25" value="order_detail" style="shape=table;startSize=30;container=1;collapsible=1;childLayout=tableLayout;fixedRows=1;rowLines=0;fontStyle=1;align=center;resizeLast=1;" parent="1" vertex="1">
          <mxGeometry x="400" y="190" width="300" height="310" as="geometry">
            <mxRectangle x="400" y="190" width="100" height="30" as="alternateBounds" />
          </mxGeometry>
        </mxCell>
        <mxCell id="cUqwhZdn4gUKvGzjcZQ_-26" value="" style="shape=partialRectangle;collapsible=0;dropTarget=0;pointerEvents=0;fillColor=none;top=0;left=0;bottom=0;right=0;points=[[0,0.5],[1,0.5]];portConstraint=eastwest;" parent="cUqwhZdn4gUKvGzjcZQ_-25" vertex="1">
          <mxGeometry y="30" width="300" height="30" as="geometry" />
        </mxCell>
        <mxCell id="cUqwhZdn4gUKvGzjcZQ_-27" value="order_created_timestamp" style="shape=partialRectangle;connectable=0;fillColor=none;top=0;left=0;bottom=0;right=0;fontStyle=0;overflow=hidden;" parent="cUqwhZdn4gUKvGzjcZQ_-26" vertex="1">
          <mxGeometry width="220" height="30" as="geometry" />
        </mxCell>
        <mxCell id="cUqwhZdn4gUKvGzjcZQ_-28" value="timestamp" style="shape=partialRectangle;connectable=0;fillColor=none;top=0;left=0;bottom=0;right=0;align=left;spacingLeft=6;fontStyle=0;overflow=hidden;" parent="cUqwhZdn4gUKvGzjcZQ_-26" vertex="1">
          <mxGeometry x="220" width="80" height="30" as="geometry" />
        </mxCell>
        <mxCell id="cUqwhZdn4gUKvGzjcZQ_-32" value="" style="shape=partialRectangle;collapsible=0;dropTarget=0;pointerEvents=0;fillColor=none;top=0;left=0;bottom=0;right=0;points=[[0,0.5],[1,0.5]];portConstraint=eastwest;" parent="cUqwhZdn4gUKvGzjcZQ_-25" vertex="1">
          <mxGeometry y="60" width="300" height="30" as="geometry" />
        </mxCell>
        <mxCell id="cUqwhZdn4gUKvGzjcZQ_-33" value="status" style="shape=partialRectangle;connectable=0;fillColor=none;top=0;left=0;bottom=0;right=0;editable=1;overflow=hidden;" parent="cUqwhZdn4gUKvGzjcZQ_-32" vertex="1">
          <mxGeometry width="220" height="30" as="geometry" />
        </mxCell>
        <mxCell id="cUqwhZdn4gUKvGzjcZQ_-34" value="string" style="shape=partialRectangle;connectable=0;fillColor=none;top=0;left=0;bottom=0;right=0;align=left;spacingLeft=6;overflow=hidden;" parent="cUqwhZdn4gUKvGzjcZQ_-32" vertex="1">
          <mxGeometry x="220" width="80" height="30" as="geometry" />
        </mxCell>
        <mxCell id="cUqwhZdn4gUKvGzjcZQ_-35" value="" style="shape=partialRectangle;collapsible=0;dropTarget=0;pointerEvents=0;fillColor=none;top=0;left=0;bottom=0;right=0;points=[[0,0.5],[1,0.5]];portConstraint=eastwest;" parent="cUqwhZdn4gUKvGzjcZQ_-25" vertex="1">
          <mxGeometry y="90" width="300" height="30" as="geometry" />
        </mxCell>
        <mxCell id="cUqwhZdn4gUKvGzjcZQ_-36" value="price" style="shape=partialRectangle;connectable=0;fillColor=none;top=0;left=0;bottom=0;right=0;editable=1;overflow=hidden;" parent="cUqwhZdn4gUKvGzjcZQ_-35" vertex="1">
          <mxGeometry width="220" height="30" as="geometry" />
        </mxCell>
        <mxCell id="cUqwhZdn4gUKvGzjcZQ_-37" value="integer" style="shape=partialRectangle;connectable=0;fillColor=none;top=0;left=0;bottom=0;right=0;align=left;spacingLeft=6;overflow=hidden;" parent="cUqwhZdn4gUKvGzjcZQ_-35" vertex="1">
          <mxGeometry x="220" width="80" height="30" as="geometry" />
        </mxCell>
        <mxCell id="cUqwhZdn4gUKvGzjcZQ_-40" value="" style="shape=partialRectangle;collapsible=0;dropTarget=0;pointerEvents=0;fillColor=none;top=0;left=0;bottom=0;right=0;points=[[0,0.5],[1,0.5]];portConstraint=eastwest;" parent="cUqwhZdn4gUKvGzjcZQ_-25" vertex="1">
          <mxGeometry y="120" width="300" height="30" as="geometry" />
        </mxCell>
        <mxCell id="cUqwhZdn4gUKvGzjcZQ_-41" value="discount" style="shape=partialRectangle;connectable=0;fillColor=none;top=0;left=0;bottom=0;right=0;editable=1;overflow=hidden;" parent="cUqwhZdn4gUKvGzjcZQ_-40" vertex="1">
          <mxGeometry width="220" height="30" as="geometry" />
        </mxCell>
        <mxCell id="cUqwhZdn4gUKvGzjcZQ_-42" value="float" style="shape=partialRectangle;connectable=0;fillColor=none;top=0;left=0;bottom=0;right=0;align=left;spacingLeft=6;overflow=hidden;" parent="cUqwhZdn4gUKvGzjcZQ_-40" vertex="1">
          <mxGeometry x="220" width="80" height="30" as="geometry" />
        </mxCell>
        <mxCell id="cUqwhZdn4gUKvGzjcZQ_-46" value="" style="shape=partialRectangle;collapsible=0;dropTarget=0;pointerEvents=0;fillColor=none;top=0;left=0;bottom=0;right=0;points=[[0,0.5],[1,0.5]];portConstraint=eastwest;" parent="cUqwhZdn4gUKvGzjcZQ_-25" vertex="1">
          <mxGeometry y="150" width="300" height="30" as="geometry" />
        </mxCell>
        <mxCell id="cUqwhZdn4gUKvGzjcZQ_-47" value="id&#xa;&#xa;" style="shape=partialRectangle;connectable=0;fillColor=none;top=0;left=0;bottom=0;right=0;editable=1;overflow=hidden;" parent="cUqwhZdn4gUKvGzjcZQ_-46" vertex="1">
          <mxGeometry width="220" height="30" as="geometry" />
        </mxCell>
        <mxCell id="cUqwhZdn4gUKvGzjcZQ_-48" value="string" style="shape=partialRectangle;connectable=0;fillColor=none;top=0;left=0;bottom=0;right=0;align=left;spacingLeft=6;overflow=hidden;" parent="cUqwhZdn4gUKvGzjcZQ_-46" vertex="1">
          <mxGeometry x="220" width="80" height="30" as="geometry" />
        </mxCell>
        <mxCell id="cUqwhZdn4gUKvGzjcZQ_-49" value="" style="shape=partialRectangle;collapsible=0;dropTarget=0;pointerEvents=0;fillColor=none;top=0;left=0;bottom=0;right=0;points=[[0,0.5],[1,0.5]];portConstraint=eastwest;" parent="cUqwhZdn4gUKvGzjcZQ_-25" vertex="1">
          <mxGeometry y="180" width="300" height="30" as="geometry" />
        </mxCell>
        <mxCell id="cUqwhZdn4gUKvGzjcZQ_-50" value="driver_id" style="shape=partialRectangle;connectable=0;fillColor=none;top=0;left=0;bottom=0;right=0;editable=1;overflow=hidden;" parent="cUqwhZdn4gUKvGzjcZQ_-49" vertex="1">
          <mxGeometry width="220" height="30" as="geometry" />
        </mxCell>
        <mxCell id="cUqwhZdn4gUKvGzjcZQ_-51" value="string" style="shape=partialRectangle;connectable=0;fillColor=none;top=0;left=0;bottom=0;right=0;align=left;spacingLeft=6;overflow=hidden;" parent="cUqwhZdn4gUKvGzjcZQ_-49" vertex="1">
          <mxGeometry x="220" width="80" height="30" as="geometry" />
        </mxCell>
        <mxCell id="cUqwhZdn4gUKvGzjcZQ_-52" value="" style="shape=partialRectangle;collapsible=0;dropTarget=0;pointerEvents=0;fillColor=none;top=0;left=0;bottom=0;right=0;points=[[0,0.5],[1,0.5]];portConstraint=eastwest;" parent="cUqwhZdn4gUKvGzjcZQ_-25" vertex="1">
          <mxGeometry y="210" width="300" height="30" as="geometry" />
        </mxCell>
        <mxCell id="cUqwhZdn4gUKvGzjcZQ_-53" value="user_id" style="shape=partialRectangle;connectable=0;fillColor=none;top=0;left=0;bottom=0;right=0;editable=1;overflow=hidden;" parent="cUqwhZdn4gUKvGzjcZQ_-52" vertex="1">
          <mxGeometry width="220" height="30" as="geometry" />
        </mxCell>
        <mxCell id="cUqwhZdn4gUKvGzjcZQ_-54" value="string" style="shape=partialRectangle;connectable=0;fillColor=none;top=0;left=0;bottom=0;right=0;align=left;spacingLeft=6;overflow=hidden;" parent="cUqwhZdn4gUKvGzjcZQ_-52" vertex="1">
          <mxGeometry x="220" width="80" height="30" as="geometry" />
        </mxCell>
        <mxCell id="cUqwhZdn4gUKvGzjcZQ_-55" value="" style="shape=partialRectangle;collapsible=0;dropTarget=0;pointerEvents=0;fillColor=none;top=0;left=0;bottom=0;right=0;points=[[0,0.5],[1,0.5]];portConstraint=eastwest;" parent="cUqwhZdn4gUKvGzjcZQ_-25" vertex="1">
          <mxGeometry y="240" width="300" height="30" as="geometry" />
        </mxCell>
        <mxCell id="cUqwhZdn4gUKvGzjcZQ_-56" value="restaurant_id" style="shape=partialRectangle;connectable=0;fillColor=none;top=0;left=0;bottom=0;right=0;editable=1;overflow=hidden;" parent="cUqwhZdn4gUKvGzjcZQ_-55" vertex="1">
          <mxGeometry width="220" height="30" as="geometry" />
        </mxCell>
        <mxCell id="cUqwhZdn4gUKvGzjcZQ_-57" value="string" style="shape=partialRectangle;connectable=0;fillColor=none;top=0;left=0;bottom=0;right=0;align=left;spacingLeft=6;overflow=hidden;" parent="cUqwhZdn4gUKvGzjcZQ_-55" vertex="1">
          <mxGeometry x="220" width="80" height="30" as="geometry" />
        </mxCell>
        <mxCell id="cUqwhZdn4gUKvGzjcZQ_-58" value="" style="shape=partialRectangle;collapsible=0;dropTarget=0;pointerEvents=0;fillColor=none;top=0;left=0;bottom=0;right=0;points=[[0,0.5],[1,0.5]];portConstraint=eastwest;" parent="cUqwhZdn4gUKvGzjcZQ_-25" vertex="1">
          <mxGeometry y="270" width="300" height="30" as="geometry" />
        </mxCell>
        <mxCell id="cUqwhZdn4gUKvGzjcZQ_-59" value="" style="shape=partialRectangle;connectable=0;fillColor=none;top=0;left=0;bottom=0;right=0;editable=1;overflow=hidden;" parent="cUqwhZdn4gUKvGzjcZQ_-58" vertex="1">
          <mxGeometry width="220" height="30" as="geometry" />
        </mxCell>
        <mxCell id="cUqwhZdn4gUKvGzjcZQ_-60" value="" style="shape=partialRectangle;connectable=0;fillColor=none;top=0;left=0;bottom=0;right=0;align=left;spacingLeft=6;overflow=hidden;" parent="cUqwhZdn4gUKvGzjcZQ_-58" vertex="1">
          <mxGeometry x="220" width="80" height="30" as="geometry" />
        </mxCell>
        <mxCell id="cUqwhZdn4gUKvGzjcZQ_-38" value="" style="shape=partialRectangle;connectable=0;fillColor=none;top=0;left=0;bottom=0;right=0;editable=1;overflow=hidden;" parent="1" vertex="1">
          <mxGeometry x="400" y="210" width="220" height="30" as="geometry" />
        </mxCell>
        <mxCell id="cUqwhZdn4gUKvGzjcZQ_-92" style="edgeStyle=orthogonalEdgeStyle;rounded=0;orthogonalLoop=1;jettySize=auto;html=1;" parent="1" source="cUqwhZdn4gUKvGzjcZQ_-61" target="cUqwhZdn4gUKvGzjcZQ_-89" edge="1">
          <mxGeometry relative="1" as="geometry" />
        </mxCell>
        <mxCell id="cUqwhZdn4gUKvGzjcZQ_-61" value="restaurant_detail" style="shape=table;startSize=30;container=1;collapsible=1;childLayout=tableLayout;fixedRows=1;rowLines=0;fontStyle=1;align=center;resizeLast=1;" parent="1" vertex="1">
          <mxGeometry x="400" y="570" width="300" height="250" as="geometry">
            <mxRectangle x="400" y="570" width="100" height="30" as="alternateBounds" />
          </mxGeometry>
        </mxCell>
        <mxCell id="cUqwhZdn4gUKvGzjcZQ_-62" value="" style="shape=partialRectangle;collapsible=0;dropTarget=0;pointerEvents=0;fillColor=none;top=0;left=0;bottom=0;right=0;points=[[0,0.5],[1,0.5]];portConstraint=eastwest;" parent="cUqwhZdn4gUKvGzjcZQ_-61" vertex="1">
          <mxGeometry y="30" width="300" height="30" as="geometry" />
        </mxCell>
        <mxCell id="cUqwhZdn4gUKvGzjcZQ_-63" value="id" style="shape=partialRectangle;connectable=0;fillColor=none;top=0;left=0;bottom=0;right=0;fontStyle=0;overflow=hidden;" parent="cUqwhZdn4gUKvGzjcZQ_-62" vertex="1">
          <mxGeometry width="220" height="30" as="geometry" />
        </mxCell>
        <mxCell id="cUqwhZdn4gUKvGzjcZQ_-64" value="string" style="shape=partialRectangle;connectable=0;fillColor=none;top=0;left=0;bottom=0;right=0;align=left;spacingLeft=6;fontStyle=0;overflow=hidden;" parent="cUqwhZdn4gUKvGzjcZQ_-62" vertex="1">
          <mxGeometry x="220" width="80" height="30" as="geometry" />
        </mxCell>
        <mxCell id="cUqwhZdn4gUKvGzjcZQ_-65" value="" style="shape=partialRectangle;collapsible=0;dropTarget=0;pointerEvents=0;fillColor=none;top=0;left=0;bottom=0;right=0;points=[[0,0.5],[1,0.5]];portConstraint=eastwest;" parent="cUqwhZdn4gUKvGzjcZQ_-61" vertex="1">
          <mxGeometry y="60" width="300" height="30" as="geometry" />
        </mxCell>
        <mxCell id="cUqwhZdn4gUKvGzjcZQ_-66" value="restaurant_name" style="shape=partialRectangle;connectable=0;fillColor=none;top=0;left=0;bottom=0;right=0;editable=1;overflow=hidden;" parent="cUqwhZdn4gUKvGzjcZQ_-65" vertex="1">
          <mxGeometry width="220" height="30" as="geometry" />
        </mxCell>
        <mxCell id="cUqwhZdn4gUKvGzjcZQ_-67" value="string" style="shape=partialRectangle;connectable=0;fillColor=none;top=0;left=0;bottom=0;right=0;align=left;spacingLeft=6;overflow=hidden;" parent="cUqwhZdn4gUKvGzjcZQ_-65" vertex="1">
          <mxGeometry x="220" width="80" height="30" as="geometry" />
        </mxCell>
        <mxCell id="cUqwhZdn4gUKvGzjcZQ_-68" value="" style="shape=partialRectangle;collapsible=0;dropTarget=0;pointerEvents=0;fillColor=none;top=0;left=0;bottom=0;right=0;points=[[0,0.5],[1,0.5]];portConstraint=eastwest;" parent="cUqwhZdn4gUKvGzjcZQ_-61" vertex="1">
          <mxGeometry y="90" width="300" height="30" as="geometry" />
        </mxCell>
        <mxCell id="cUqwhZdn4gUKvGzjcZQ_-69" value="category" style="shape=partialRectangle;connectable=0;fillColor=none;top=0;left=0;bottom=0;right=0;editable=1;overflow=hidden;" parent="cUqwhZdn4gUKvGzjcZQ_-68" vertex="1">
          <mxGeometry width="220" height="30" as="geometry" />
        </mxCell>
        <mxCell id="cUqwhZdn4gUKvGzjcZQ_-70" value="string" style="shape=partialRectangle;connectable=0;fillColor=none;top=0;left=0;bottom=0;right=0;align=left;spacingLeft=6;overflow=hidden;" parent="cUqwhZdn4gUKvGzjcZQ_-68" vertex="1">
          <mxGeometry x="220" width="80" height="30" as="geometry" />
        </mxCell>
        <mxCell id="cUqwhZdn4gUKvGzjcZQ_-71" value="" style="shape=partialRectangle;collapsible=0;dropTarget=0;pointerEvents=0;fillColor=none;top=0;left=0;bottom=0;right=0;points=[[0,0.5],[1,0.5]];portConstraint=eastwest;" parent="cUqwhZdn4gUKvGzjcZQ_-61" vertex="1">
          <mxGeometry y="120" width="300" height="30" as="geometry" />
        </mxCell>
        <mxCell id="cUqwhZdn4gUKvGzjcZQ_-72" value="esimated_cooking_time" style="shape=partialRectangle;connectable=0;fillColor=none;top=0;left=0;bottom=0;right=0;editable=1;overflow=hidden;" parent="cUqwhZdn4gUKvGzjcZQ_-71" vertex="1">
          <mxGeometry width="220" height="30" as="geometry" />
        </mxCell>
        <mxCell id="cUqwhZdn4gUKvGzjcZQ_-73" value="float" style="shape=partialRectangle;connectable=0;fillColor=none;top=0;left=0;bottom=0;right=0;align=left;spacingLeft=6;overflow=hidden;" parent="cUqwhZdn4gUKvGzjcZQ_-71" vertex="1">
          <mxGeometry x="220" width="80" height="30" as="geometry" />
        </mxCell>
        <mxCell id="cUqwhZdn4gUKvGzjcZQ_-74" value="" style="shape=partialRectangle;collapsible=0;dropTarget=0;pointerEvents=0;fillColor=none;top=0;left=0;bottom=0;right=0;points=[[0,0.5],[1,0.5]];portConstraint=eastwest;" parent="cUqwhZdn4gUKvGzjcZQ_-61" vertex="1">
          <mxGeometry y="150" width="300" height="30" as="geometry" />
        </mxCell>
        <mxCell id="cUqwhZdn4gUKvGzjcZQ_-75" value="latitude" style="shape=partialRectangle;connectable=0;fillColor=none;top=0;left=0;bottom=0;right=0;editable=1;overflow=hidden;" parent="cUqwhZdn4gUKvGzjcZQ_-74" vertex="1">
          <mxGeometry width="220" height="30" as="geometry" />
        </mxCell>
        <mxCell id="cUqwhZdn4gUKvGzjcZQ_-76" value="float" style="shape=partialRectangle;connectable=0;fillColor=none;top=0;left=0;bottom=0;right=0;align=left;spacingLeft=6;overflow=hidden;" parent="cUqwhZdn4gUKvGzjcZQ_-74" vertex="1">
          <mxGeometry x="220" width="80" height="30" as="geometry" />
        </mxCell>
        <mxCell id="cUqwhZdn4gUKvGzjcZQ_-77" value="" style="shape=partialRectangle;collapsible=0;dropTarget=0;pointerEvents=0;fillColor=none;top=0;left=0;bottom=0;right=0;points=[[0,0.5],[1,0.5]];portConstraint=eastwest;" parent="cUqwhZdn4gUKvGzjcZQ_-61" vertex="1">
          <mxGeometry y="180" width="300" height="30" as="geometry" />
        </mxCell>
        <mxCell id="cUqwhZdn4gUKvGzjcZQ_-78" value="longitude" style="shape=partialRectangle;connectable=0;fillColor=none;top=0;left=0;bottom=0;right=0;editable=1;overflow=hidden;" parent="cUqwhZdn4gUKvGzjcZQ_-77" vertex="1">
          <mxGeometry width="220" height="30" as="geometry" />
        </mxCell>
        <mxCell id="cUqwhZdn4gUKvGzjcZQ_-79" value="float" style="shape=partialRectangle;connectable=0;fillColor=none;top=0;left=0;bottom=0;right=0;align=left;spacingLeft=6;overflow=hidden;" parent="cUqwhZdn4gUKvGzjcZQ_-77" vertex="1">
          <mxGeometry x="220" width="80" height="30" as="geometry" />
        </mxCell>
        <mxCell id="cUqwhZdn4gUKvGzjcZQ_-80" value="" style="shape=partialRectangle;collapsible=0;dropTarget=0;pointerEvents=0;fillColor=none;top=0;left=0;bottom=0;right=0;points=[[0,0.5],[1,0.5]];portConstraint=eastwest;" parent="cUqwhZdn4gUKvGzjcZQ_-61" vertex="1">
          <mxGeometry y="210" width="300" height="30" as="geometry" />
        </mxCell>
        <mxCell id="cUqwhZdn4gUKvGzjcZQ_-81" value="" style="shape=partialRectangle;connectable=0;fillColor=none;top=0;left=0;bottom=0;right=0;editable=1;overflow=hidden;" parent="cUqwhZdn4gUKvGzjcZQ_-80" vertex="1">
          <mxGeometry width="220" height="30" as="geometry" />
        </mxCell>
        <mxCell id="cUqwhZdn4gUKvGzjcZQ_-82" value="" style="shape=partialRectangle;connectable=0;fillColor=none;top=0;left=0;bottom=0;right=0;align=left;spacingLeft=6;overflow=hidden;" parent="cUqwhZdn4gUKvGzjcZQ_-80" vertex="1">
          <mxGeometry x="220" width="80" height="30" as="geometry" />
        </mxCell>
        <mxCell id="cUqwhZdn4gUKvGzjcZQ_-93" style="edgeStyle=orthogonalEdgeStyle;rounded=0;orthogonalLoop=1;jettySize=auto;html=1;" parent="1" source="cUqwhZdn4gUKvGzjcZQ_-89" target="cUqwhZdn4gUKvGzjcZQ_-94" edge="1">
          <mxGeometry relative="1" as="geometry">
            <mxPoint x="1460" y="519.9999999999998" as="targetPoint" />
          </mxGeometry>
        </mxCell>
        <mxCell id="cUqwhZdn4gUKvGzjcZQ_-95" value="ETL" style="edgeLabel;html=1;align=center;verticalAlign=middle;resizable=0;points=[];fontSize=18;" parent="cUqwhZdn4gUKvGzjcZQ_-93" vertex="1" connectable="0">
          <mxGeometry x="-0.115" y="1" relative="1" as="geometry">
            <mxPoint as="offset" />
          </mxGeometry>
        </mxCell>
        <mxCell id="cUqwhZdn4gUKvGzjcZQ_-89" value="Postgres DB" style="aspect=fixed;html=1;points=[];align=center;image;fontSize=12;image=img/lib/azure2/databases/Azure_Database_PostgreSQL_Server.svg;" parent="1" vertex="1">
          <mxGeometry x="990" y="440" width="120" height="160" as="geometry" />
        </mxCell>
        <mxCell id="cUqwhZdn4gUKvGzjcZQ_-94" value="Hive" style="rounded=1;whiteSpace=wrap;html=1;" parent="1" vertex="1">
          <mxGeometry x="1360" y="490" width="120" height="60" as="geometry" />
        </mxCell>
        <mxCell id="cUqwhZdn4gUKvGzjcZQ_-99" value="&lt;p style=&quot;box-sizing: border-box; margin-top: 16px; margin-bottom: 16px; color: rgb(201, 209, 217); font-size: 16px; font-style: normal; font-weight: 400; letter-spacing: normal; text-align: left; text-indent: 0px; text-transform: none; word-spacing: 0px; background-color: rgb(13, 17, 23);&quot;&gt;ETL the same tables to Hive with the same names and corresponding Hive data type using the below guidelines&lt;/p&gt;&lt;ul style=&quot;box-sizing: border-box; padding-left: 2em; margin-top: 0px; margin-bottom: 0px; color: rgb(201, 209, 217); font-size: 16px; font-style: normal; font-weight: 400; letter-spacing: normal; text-align: left; text-indent: 0px; text-transform: none; word-spacing: 0px; background-color: rgb(13, 17, 23);&quot;&gt;&lt;li style=&quot;box-sizing: border-box&quot;&gt;Both the tables should be&lt;span&gt;&amp;nbsp;&lt;/span&gt;&lt;strong style=&quot;box-sizing: border-box ; font-weight: 600&quot;&gt;external table&lt;/strong&gt;.&lt;/li&gt;&lt;li style=&quot;box-sizing: border-box ; margin-top: 0.25em&quot;&gt;Both the tables should have&lt;span&gt;&amp;nbsp;&lt;/span&gt;&lt;strong style=&quot;box-sizing: border-box ; font-weight: 600&quot;&gt;parquet file format&lt;/strong&gt;.&lt;/li&gt;&lt;li style=&quot;box-sizing: border-box ; margin-top: 0.25em&quot;&gt;restaurant_detail table should be partitioned by a column name&lt;span&gt;&amp;nbsp;&lt;/span&gt;&lt;strong style=&quot;box-sizing: border-box ; font-weight: 600&quot;&gt;dt&lt;/strong&gt;&lt;span&gt;&amp;nbsp;&lt;/span&gt;(type string) with a static value&lt;span&gt;&amp;nbsp;&lt;/span&gt;&lt;strong style=&quot;box-sizing: border-box ; font-weight: 600&quot;&gt;latest&lt;/strong&gt;.&lt;/li&gt;&lt;li style=&quot;box-sizing: border-box ; margin-top: 0.25em&quot;&gt;order_detail table should be partitioned by column named&lt;span&gt;&amp;nbsp;&lt;/span&gt;&lt;strong style=&quot;box-sizing: border-box ; font-weight: 600&quot;&gt;dt&lt;/strong&gt;&lt;span&gt;&amp;nbsp;&lt;/span&gt;(type string) extracted from&lt;span&gt;&amp;nbsp;&lt;/span&gt;&lt;strong style=&quot;box-sizing: border-box ; font-weight: 600&quot;&gt;order_created_timestamp&lt;/strong&gt;&lt;span&gt;&amp;nbsp;&lt;/span&gt;in the format&lt;span&gt;&amp;nbsp;&lt;/span&gt;&lt;strong style=&quot;box-sizing: border-box ; font-weight: 600&quot;&gt;YYYYMMDD&lt;/strong&gt;.&lt;/li&gt;&lt;/ul&gt;" style="text;whiteSpace=wrap;html=1;fontSize=18;" parent="1" vertex="1">
          <mxGeometry x="1000" y="20" width="550" height="260" as="geometry" />
        </mxCell>
        <mxCell id="cUqwhZdn4gUKvGzjcZQ_-101" value="&lt;pre style=&quot;box-sizing: border-box ; font-size: 13.6px ; margin-top: 0px ; margin-bottom: 0px ; overflow-wrap: normal ; padding: 16px ; overflow: auto ; line-height: 1.45 ; border-radius: 6px ; word-break: normal ; font-style: normal ; font-weight: 400 ; letter-spacing: normal ; text-indent: 0px ; text-transform: none ; word-spacing: 0px&quot;&gt;&lt;font color=&quot;#0000ff&quot;&gt;&lt;span class=&quot;pl-v&quot; style=&quot;box-sizing: border-box&quot;&gt;Example&lt;/span&gt; &lt;span class=&quot;pl-s1&quot; style=&quot;box-sizing: border-box&quot;&gt;of&lt;/span&gt; &lt;span class=&quot;pl-s1&quot; style=&quot;box-sizing: border-box&quot;&gt;dt&lt;/span&gt; &lt;span class=&quot;pl-s1&quot; style=&quot;box-sizing: border-box&quot;&gt;column&lt;/span&gt;&lt;br&gt;&lt;br&gt;&lt;span class=&quot;pl-s1&quot; style=&quot;box-sizing: border-box&quot;&gt;order_created_timestamp&lt;/span&gt;: &lt;span class=&quot;pl-s&quot; style=&quot;box-sizing: border-box&quot;&gt;&quot;2019-06-08 17:31:57&quot;&lt;/span&gt;&lt;br&gt;&lt;span class=&quot;pl-s1&quot; style=&quot;box-sizing: border-box&quot;&gt;dt&lt;/span&gt;: &lt;span class=&quot;pl-s&quot; style=&quot;box-sizing: border-box&quot;&gt;&quot;20190608&quot;&lt;/span&gt;&lt;/font&gt;&lt;/pre&gt;" style="text;whiteSpace=wrap;html=1;fontSize=18;" parent="1" vertex="1">
          <mxGeometry x="1000" y="260" width="400" height="120" as="geometry" />
        </mxCell>
        <mxCell id="cUqwhZdn4gUKvGzjcZQ_-102" value="https://medium.com/plumbersofdatascience/hive-architecture-in-depth-ba44e8946cbc" style="text;html=1;align=center;verticalAlign=middle;resizable=0;points=[];autosize=1;strokeColor=none;fontSize=18;" parent="1" vertex="1">
          <mxGeometry x="170" y="-235" width="700" height="30" as="geometry" />
        </mxCell>
        <mxCell id="cUqwhZdn4gUKvGzjcZQ_-103" value="https://hshirodkar.medium.com/apache-hive-on-docker-4d7280ac6f8e" style="text;html=1;align=center;verticalAlign=middle;resizable=0;points=[];autosize=1;strokeColor=none;fontSize=18;" parent="1" vertex="1">
          <mxGeometry x="170" y="-290" width="570" height="30" as="geometry" />
        </mxCell>
        <mxCell id="Xjd__0lMG31UaCI8izmG-1" value="&lt;span style=&quot;color: rgb(0, 0, 0); font-family: helvetica; font-size: 18px; font-style: normal; font-weight: 400; letter-spacing: normal; text-align: center; text-indent: 0px; text-transform: none; word-spacing: 0px; background-color: rgb(248, 249, 250); display: inline; float: none;&quot;&gt;https://hshirodkar.medium.com/apache-hive-on-docker-4d7280ac6f8e&lt;/span&gt;" style="text;whiteSpace=wrap;html=1;" vertex="1" parent="1">
          <mxGeometry x="10" y="-530" width="550" height="50" as="geometry" />
        </mxCell>
      </root>
    </mxGraphModel>
  </diagram>
</mxfile>
